<svg width="37" height="29" viewBox="0 0 37 29" fill="none" xmlns="http://www.w3.org/2000/svg">
<path d="M33.2444 2.67031C35.3737 4.79093 36.5581 7.2081 36.686 11.184C36.9111 18.1804 32.2034 24.6091 25.1588 27.9394L23.2851 25.2422C29.8356 21.4216 30.9884 16.7001 31.4152 13.7328C30.3596 14.3231 28.9606 14.5622 27.5772 14.4786C23.9603 14.2608 21.0226 11.3918 20.9042 7.71173C20.8445 5.85617 21.5243 4.0529 22.7942 2.69861C24.064 1.34432 25.8199 0.549952 27.6754 0.490255C29.8203 0.421248 31.9048 1.33469 33.2444 2.67031ZM13.2548 3.31342C15.3841 5.43405 16.5684 7.85122 16.6963 11.8272C16.9214 18.8235 12.2137 25.2522 5.16914 28.5825L3.29544 25.8853C9.84597 22.0647 10.9987 17.3432 11.4235 14.376C10.368 14.9663 8.96895 15.2054 7.58755 15.1218C3.97074 14.906 1.03496 12.0369 0.916497 8.35478C0.856799 6.49922 1.53666 4.69595 2.80653 3.34166C4.07639 1.98737 5.83223 1.19301 7.68779 1.13331C9.83268 1.0643 11.9171 1.97775 13.2568 3.31336" fill="white"/>
</svg>
