<svg width="37" height="29" viewBox="0 0 37 29" fill="none" xmlns="http://www.w3.org/2000/svg">
<path d="M3.85043 26.4317C1.74749 24.2849 0.593088 21.8533 0.51428 17.8761C0.375604 10.8775 5.16234 4.50741 12.2475 1.26442L14.0877 3.98449C7.49053 7.72392 6.27953 12.4308 5.81612 15.3926C6.87889 14.8154 8.28077 14.5936 9.66304 14.6943C13.2769 14.9567 16.1791 17.8618 16.252 21.5431C16.2888 23.3992 15.5867 25.194 14.3002 26.5325C13.0137 27.871 11.2482 28.6436 9.39206 28.6804C7.24648 28.7229 5.17347 27.7838 3.85043 26.4317ZM23.8465 26.0355C21.7436 23.8887 20.5892 21.4571 20.5104 17.4799C20.3717 10.4813 25.1584 4.1112 32.2436 0.868196L34.0838 3.58827C27.4866 7.3277 26.2756 12.0346 25.8142 14.9963C26.877 14.4192 28.2788 14.1974 29.6591 14.298C33.273 14.5585 36.1731 17.4636 36.2461 21.1469C36.2829 23.003 35.5808 24.7978 34.2943 26.1363C33.0078 27.4748 31.2423 28.2474 29.3861 28.2842C27.2406 28.3267 25.1675 27.3876 23.8445 26.0355" fill="white"/>
</svg>
