<svg width="32" height="32" viewBox="0 0 32 32" fill="none" xmlns="http://www.w3.org/2000/svg">
<path fill-rule="evenodd" clip-rule="evenodd" d="M10.2857 3.42871C9.15429 3.42871 8.26743 4.11671 7.71886 4.94185C7.16343 5.77385 6.85714 6.85957 6.85714 8.00014C6.85714 9.14071 7.16343 10.2264 7.71886 11.0584C8.26743 11.8813 9.15429 12.5716 10.2857 12.5716C11.4171 12.5716 12.304 11.8836 12.8526 11.0584C13.408 10.2264 13.7143 9.14071 13.7143 8.00014C13.7143 6.85957 13.408 5.77385 12.8526 4.94185C12.304 4.119 11.4171 3.42871 10.2857 3.42871ZM21.7143 3.42871C20.5829 3.42871 19.696 4.11671 19.1474 4.94185C18.592 5.77385 18.2857 6.85957 18.2857 8.00014C18.2857 9.14071 18.592 10.2264 19.1474 11.0584C19.696 11.8813 20.5829 12.5716 21.7143 12.5716C22.8457 12.5716 23.7326 11.8836 24.2811 11.0584C24.8366 10.2264 25.1429 9.14071 25.1429 8.00014C25.1429 6.85957 24.8366 5.77385 24.2811 4.94185C23.7326 4.119 22.8457 3.42871 21.7143 3.42871ZM3.42857 13.7144C2.29714 13.7144 1.41029 14.4024 0.861714 15.2276C0.306286 16.0596 0 17.1453 0 18.2859C0 19.4264 0.306286 20.5121 0.861714 21.3441C1.41029 22.167 2.29714 22.8573 3.42857 22.8573C4.56 22.8573 5.44686 22.1693 5.99543 21.3441C6.55086 20.5121 6.85714 19.4264 6.85714 18.2859C6.85714 17.1453 6.55086 16.0596 5.99543 15.2276C5.44686 14.4047 4.56 13.7144 3.42857 13.7144ZM16 13.7144C13.2571 13.7144 11.2251 15.1864 9.92686 17.0127C8.64457 18.8116 8 21.0447 8 22.8573C8 24.9693 9.26857 26.4367 10.8251 27.319C12.3566 28.1876 14.2766 28.5716 16 28.5716C17.7234 28.5716 19.6434 28.1899 21.1749 27.319C22.7291 26.4367 24 24.9693 24 22.8573C24 21.0447 23.3554 18.8116 22.0731 17.0127C20.7771 15.1841 18.7451 13.7144 16 13.7144ZM28.5714 13.7144C27.44 13.7144 26.5531 14.4024 26.0046 15.2276C25.4491 16.0596 25.1429 17.1453 25.1429 18.2859C25.1429 19.4264 25.4491 20.5121 26.0046 21.3441C26.5531 22.167 27.44 22.8573 28.5714 22.8573C29.7029 22.8573 30.5897 22.1693 31.1383 21.3441C31.6937 20.5121 32 19.4264 32 18.2859C32 17.1453 31.6937 16.0596 31.1383 15.2276C30.5897 14.4047 29.7029 13.7144 28.5714 13.7144Z" fill="white"/>
</svg>
