<svg width="30" height="22" viewBox="0 0 30 22" fill="none" xmlns="http://www.w3.org/2000/svg">
<path d="M11.999 15.499L19.784 10.999L11.999 6.49902V15.499ZM29.339 3.75402C29.534 4.45902 29.669 5.40402 29.759 6.60402C29.864 7.80402 29.909 8.83902 29.909 9.73902L29.999 10.999C29.999 14.284 29.759 16.699 29.339 18.244C28.964 19.594 28.094 20.464 26.744 20.839C26.039 21.034 24.749 21.169 22.769 21.259C20.819 21.364 19.034 21.409 17.384 21.409L14.999 21.499C8.71402 21.499 4.79902 21.259 3.25402 20.839C1.90402 20.464 1.03402 19.594 0.659023 18.244C0.464024 17.539 0.329024 16.594 0.239024 15.394C0.134024 14.194 0.0890233 13.159 0.0890233 12.259L-0.000976562 10.999C-0.000976562 7.71402 0.239024 5.29902 0.659023 3.75402C1.03402 2.40402 1.90402 1.53402 3.25402 1.15902C3.95902 0.964024 5.24902 0.829023 7.22902 0.739023C9.17902 0.634023 10.964 0.589023 12.614 0.589023L14.999 0.499023C21.284 0.499023 25.199 0.739024 26.744 1.15902C28.094 1.53402 28.964 2.40402 29.339 3.75402Z" fill="white"/>
</svg>
