<svg width="30" height="30" viewBox="0 0 30 30" fill="none" xmlns="http://www.w3.org/2000/svg">
<path opacity="0.5" d="M14.9996 27.5C16.424 27.5002 17.8134 27.0581 18.9756 26.2345C20.1378 25.411 21.0155 24.2469 21.4875 22.9029C21.9594 21.559 22.0023 20.1016 21.6101 18.7323C21.218 17.3629 20.4102 16.1491 19.2984 15.2587C19.1319 15.1325 18.996 14.9702 18.901 14.784C18.806 14.5979 18.7542 14.3927 18.7496 14.1838V6.25C18.7496 5.25544 18.3545 4.30161 17.6513 3.59835C16.948 2.89509 15.9942 2.5 14.9996 2.5C14.0051 2.5 13.0512 2.89509 12.348 3.59835C11.6447 4.30161 11.2496 5.25544 11.2496 6.25V14.185C11.2496 14.6075 11.0309 14.995 10.7009 15.26C9.58957 16.1505 8.78222 17.3642 8.39037 18.7333C7.99853 20.1024 8.04152 21.5595 8.51342 22.9031C8.98531 24.2468 9.86281 25.4107 11.0247 26.2342C12.1866 27.0576 13.5755 27.4999 14.9996 27.5Z" stroke="white" stroke-width="1.5"/>
<path d="M15 17.5C14.1712 17.5 13.3763 17.8292 12.7903 18.4153C12.2042 19.0013 11.875 19.7962 11.875 20.625C11.875 21.4538 12.2042 22.2487 12.7903 22.8347C13.3763 23.4208 14.1712 23.75 15 23.75C15.8288 23.75 16.6237 23.4208 17.2097 22.8347C17.7958 22.2487 18.125 21.4538 18.125 20.625C18.125 19.7962 17.7958 19.0013 17.2097 18.4153C16.6237 17.8292 15.8288 17.5 15 17.5ZM15 17.5V6.25" stroke="white" stroke-width="1.5" stroke-linecap="round"/>
</svg>
